<svg xmlns="http://www.w3.org/2000/svg" width="512" height="512" viewBox="0 0 512 512">
  <defs>
    <radialGradient id="bg" cx="42%" cy="28%" r="76%">
      <stop offset="0%" stop-color="#9a8976"/>
      <stop offset="58%" stop-color="#594638"/>
      <stop offset="100%" stop-color="#211a16"/>
    </radialGradient>
    <filter id="shadow" x="-20%" y="-20%" width="140%" height="140%">
      <feDropShadow dx="0" dy="10" stdDeviation="10" flood-color="#000" flood-opacity=".36"/>
    </filter>
  </defs>
  <rect width="512" height="512" rx="42" fill="url(#bg)"/>
  <path d="M42 78c70-38 142-52 214-42 82 12 154 48 214 104v294H42z" fill="#fff" opacity=".06"/>
  <rect x="26" y="26" width="460" height="460" rx="34" fill="none" stroke="#f4ead4" stroke-width="8" opacity=".48"/>
  <g filter="url(#shadow)"><path d="M256 82c76 0 132 58 132 132 0 56-30 90-70 112v76H194v-76c-40-22-70-56-70-112 0-74 56-132 132-132z" fill="#e7edf0"/><circle cx="216" cy="222" r="28" fill="#203036"/><circle cx="296" cy="222" r="28" fill="#203036"/><path d="M234 304h44M214 362h84" stroke="#203036" stroke-width="16" stroke-linecap="round"/></g>
  <rect x="58" y="398" width="396" height="66" rx="12" fill="#120f0c" opacity=".55"/>
  <text x="256" y="439" text-anchor="middle" font-family="Georgia, serif" font-size="28" font-weight="700" fill="#fff0d2">Crystal Skull Hawk</text>
</svg>
