<svg xmlns="http://www.w3.org/2000/svg" width="512" height="512" viewBox="0 0 512 512">
  <defs>
    <radialGradient id="bg" cx="42%" cy="28%" r="76%">
      <stop offset="0%" stop-color="#657e56"/>
      <stop offset="58%" stop-color="#31583a"/>
      <stop offset="100%" stop-color="#17231c"/>
    </radialGradient>
    <filter id="shadow" x="-20%" y="-20%" width="140%" height="140%">
      <feDropShadow dx="0" dy="10" stdDeviation="10" flood-color="#000" flood-opacity=".36"/>
    </filter>
  </defs>
  <rect width="512" height="512" rx="42" fill="url(#bg)"/>
  <path d="M42 78c70-38 142-52 214-42 82 12 154 48 214 104v294H42z" fill="#fff" opacity=".06"/>
  <rect x="26" y="26" width="460" height="460" rx="34" fill="none" stroke="#f4ead4" stroke-width="8" opacity=".48"/>
  <g filter="url(#shadow)"><path d="M210 78h92v46l-28 24v76l82 142c32 56-8 126-72 126h-56c-64 0-104-70-72-126l82-142v-76l-28-24z" fill="#f5ead1"/>
  <path d="M178 354h156l34 58c20 34-4 78-44 78H188c-40 0-64-44-44-78z" fill="#2f2520"/>
  <path d="M198 378h116c20 0 34 22 24 40-12 22-30 36-82 36s-70-14-82-36c-10-18 4-40 24-40z" fill="#b98038" opacity=".58"/>
  <path d="M220 86h72" stroke="#60422b" stroke-width="18" stroke-linecap="round"/>
  <path d="M196 232c42-64 78-64 120 0M210 236c20 32 72 32 92 0" fill="none" stroke="#d4a05a" stroke-width="24" stroke-linecap="round"/><path d="M186 286h140" stroke="#d4a05a" stroke-width="20" stroke-linecap="round"/></g>
  <rect x="58" y="398" width="396" height="66" rx="12" fill="#120f0c" opacity=".55"/>
  <text x="256" y="439" text-anchor="middle" font-family="Georgia, serif" font-size="32" font-weight="700" fill="#fff0d2">Thunderbolt</text>
</svg>
