<svg xmlns="http://www.w3.org/2000/svg" width="512" height="512" viewBox="0 0 512 512">
  <defs>
    <radialGradient id="bg" cx="42%" cy="28%" r="76%">
      <stop offset="0%" stop-color="#c19b6b"/>
      <stop offset="58%" stop-color="#6b4b2f"/>
      <stop offset="100%" stop-color="#281c13"/>
    </radialGradient>
    <filter id="shadow" x="-20%" y="-20%" width="140%" height="140%">
      <feDropShadow dx="0" dy="10" stdDeviation="10" flood-color="#000" flood-opacity=".36"/>
    </filter>
  </defs>
  <rect width="512" height="512" rx="42" fill="url(#bg)"/>
  <path d="M42 78c70-38 142-52 214-42 82 12 154 48 214 104v294H42z" fill="#fff" opacity=".06"/>
  <rect x="26" y="26" width="460" height="460" rx="34" fill="none" stroke="#f4ead4" stroke-width="8" opacity=".48"/>
  <g filter="url(#shadow)"><path d="M110 330h292l-46 74H156z" fill="#f0dfbd"/><path d="M256 100v230M256 126l-106 150h106zM270 152l110 124H270z" fill="#f0dfbd"/><path d="M122 422c52-24 86 24 134 0 52-24 86 24 134 0" fill="none" stroke="#8cc0cf" stroke-width="18" stroke-linecap="round"/></g>
  <rect x="58" y="398" width="396" height="66" rx="12" fill="#120f0c" opacity=".55"/>
  <text x="256" y="439" text-anchor="middle" font-family="Georgia, serif" font-size="32" font-weight="700" fill="#fff0d2">Sailing Boat</text>
</svg>
