<svg xmlns="http://www.w3.org/2000/svg" width="512" height="512" viewBox="0 0 512 512">
  <defs>
    <radialGradient id="bg" cx="42%" cy="28%" r="76%">
      <stop offset="0%" stop-color="#8a6f55"/>
      <stop offset="58%" stop-color="#533a2f"/>
      <stop offset="100%" stop-color="#211816"/>
    </radialGradient>
    <filter id="shadow" x="-20%" y="-20%" width="140%" height="140%">
      <feDropShadow dx="0" dy="10" stdDeviation="10" flood-color="#000" flood-opacity=".36"/>
    </filter>
  </defs>
  <rect width="512" height="512" rx="42" fill="url(#bg)"/>
  <path d="M42 78c70-38 142-52 214-42 82 12 154 48 214 104v294H42z" fill="#fff" opacity=".06"/>
  <rect x="26" y="26" width="460" height="460" rx="34" fill="none" stroke="#f4ead4" stroke-width="8" opacity=".48"/>
  <g filter="url(#shadow)"><path d="M256 68c92 0 166 74 166 166 0 48-22 94-58 126l-42-42c24-22 38-52 38-84 0-58-46-104-104-104s-104 46-104 104c0 32 14 62 38 84l-42 42c-36-32-58-78-58-126 0-92 74-166 166-166z" fill="#ead7b0"/>
  <circle cx="216" cy="224" r="20" fill="#211816"/><circle cx="296" cy="224" r="20" fill="#211816"/><path d="M190 334h132l40 108H150z" fill="#c6a078"/></g>
  <rect x="58" y="398" width="396" height="66" rx="12" fill="#120f0c" opacity=".55"/>
  <text x="256" y="439" text-anchor="middle" font-family="Georgia, serif" font-size="24" font-weight="700" fill="#fff0d2">A Sheep In Wolf S Clothing</text>
</svg>
