<svg xmlns="http://www.w3.org/2000/svg" width="512" height="512" viewBox="0 0 512 512">
  <defs>
    <radialGradient id="bg" cx="42%" cy="28%" r="76%">
      <stop offset="0%" stop-color="#8a6f55"/>
      <stop offset="58%" stop-color="#533a2f"/>
      <stop offset="100%" stop-color="#211816"/>
    </radialGradient>
    <filter id="shadow" x="-20%" y="-20%" width="140%" height="140%">
      <feDropShadow dx="0" dy="10" stdDeviation="10" flood-color="#000" flood-opacity=".36"/>
    </filter>
  </defs>
  <rect width="512" height="512" rx="42" fill="url(#bg)"/>
  <path d="M42 78c70-38 142-52 214-42 82 12 154 48 214 104v294H42z" fill="#fff" opacity=".06"/>
  <rect x="26" y="26" width="460" height="460" rx="34" fill="none" stroke="#f4ead4" stroke-width="8" opacity=".48"/>
  <g filter="url(#shadow)"><path d="M104 254c72-72 232-72 304 0-70 78-234 78-304 0z" fill="#ead7b0"/>
    <path d="M136 254h240" stroke="#4e3929" stroke-width="18" stroke-linecap="round"/>
    <g stroke="#ead7b0" stroke-width="20" stroke-linecap="round"><path d="M176 226l-44-60"/><path d="M222 216l-18-72"/><path d="M290 216l18-72"/><path d="M336 226l44-60"/><path d="M176 282l-44 60"/><path d="M222 292l-18 72"/><path d="M290 292l18 72"/><path d="M336 282l44 60"/></g></g>
  <rect x="58" y="398" width="396" height="66" rx="12" fill="#120f0c" opacity=".55"/>
  <text x="256" y="439" text-anchor="middle" font-family="Georgia, serif" font-size="32" font-weight="700" fill="#fff0d2">Glustyworp</text>
</svg>
