<svg xmlns="http://www.w3.org/2000/svg" width="512" height="512" viewBox="0 0 512 512">
  <defs>
    <radialGradient id="bg" cx="42%" cy="28%" r="76%">
      <stop offset="0%" stop-color="#8a6f55"/>
      <stop offset="58%" stop-color="#533a2f"/>
      <stop offset="100%" stop-color="#211816"/>
    </radialGradient>
    <filter id="shadow" x="-20%" y="-20%" width="140%" height="140%">
      <feDropShadow dx="0" dy="10" stdDeviation="10" flood-color="#000" flood-opacity=".36"/>
    </filter>
  </defs>
  <rect width="512" height="512" rx="42" fill="url(#bg)"/>
  <path d="M42 78c70-38 142-52 214-42 82 12 154 48 214 104v294H42z" fill="#fff" opacity=".06"/>
  <rect x="26" y="26" width="460" height="460" rx="34" fill="none" stroke="#f4ead4" stroke-width="8" opacity=".48"/>
  <g filter="url(#shadow)"><path d="M256 72c76 0 126 62 126 140v210l-54-40-44 58-44-58-54 40V212c0-78 50-140 126-140z" fill="#e7edf0" opacity=".88"/>
    <circle cx="220" cy="206" r="18" fill="#182327"/><circle cx="292" cy="206" r="18" fill="#182327"/><path d="M222 282c24 22 44 22 68 0" fill="none" stroke="#182327" stroke-width="12" stroke-linecap="round"/></g>
  <rect x="58" y="398" width="396" height="66" rx="12" fill="#120f0c" opacity=".55"/>
  <text x="256" y="439" text-anchor="middle" font-family="Georgia, serif" font-size="32" font-weight="700" fill="#fff0d2">Wraith</text>
</svg>
