<svg xmlns="http://www.w3.org/2000/svg" width="512" height="512" viewBox="0 0 512 512">
  <defs>
    <radialGradient id="bg" cx="42%" cy="28%" r="76%">
      <stop offset="0%" stop-color="#c8aa68"/>
      <stop offset="58%" stop-color="#7a5732"/>
      <stop offset="100%" stop-color="#302114"/>
    </radialGradient>
    <filter id="shadow" x="-20%" y="-20%" width="140%" height="140%">
      <feDropShadow dx="0" dy="10" stdDeviation="10" flood-color="#000" flood-opacity=".36"/>
    </filter>
  </defs>
  <rect width="512" height="512" rx="42" fill="url(#bg)"/>
  <path d="M42 78c70-38 142-52 214-42 82 12 154 48 214 104v294H42z" fill="#fff" opacity=".06"/>
  <rect x="26" y="26" width="460" height="460" rx="34" fill="none" stroke="#f4ead4" stroke-width="8" opacity=".48"/>
  <g filter="url(#shadow)"><path d="M126 82h260c22 0 40 18 40 40v294c0 22-18 40-40 40H126c-22 0-40-18-40-40V122c0-22 18-40 40-40z" fill="#f3e4bd"/>
  <rect x="144" y="142" width="224" height="160" rx="10" fill="#8fb0a0"/><path d="M158 282l62-70 48 46 36-36 50 60z" fill="#f3e4bd"/>
  <path d="M126 82c30 28 30 346 0 374" fill="none" stroke="#6b4b2f" stroke-width="16" opacity=".7"/></g>
  <rect x="58" y="398" width="396" height="66" rx="12" fill="#120f0c" opacity=".55"/>
  <text x="256" y="439" text-anchor="middle" font-family="Georgia, serif" font-size="28" font-weight="700" fill="#fff0d2">Adventure Handouts</text>
</svg>
